{"asset":{"version":"2.0"},"scene":0,"scenes":[{"nodes":[0]}],"nodes":[{"mesh":0}],"meshes":[{"primitives":[{"attributes":{"POSITION":0},"indices":1,"material":0}]}],"materials":[{"pbrMetallicRoughness":{"baseColorFactor":[0.000000,1.000000,0.000000,1],"metallicFactor":0,"roughnessFactor":1},"extensions":{"KHR_materials_unlit":{}}}],"extensionsUsed":["KHR_materials_unlit"],"buffers":[{"byteLength":44,"uri":"data:application/octet-stream;base64,"}],"bufferViews":[{"buffer":0,"byteOffset":0,"byteLength":36},{"buffer":0,"byteOffset":36,"byteLength":6}],"accessors":[{"bufferView":0,"componentType":5126,"count":3,"type":"VEC3","min":[-0.5,-0.5,0],"max":[0.5,0.5,0]},{"bufferView":1,"componentType":5123,"count":3,"type":"SCALAR"}]}